<svg width="15" height="14" viewBox="0 0 15 14" fill="none" xmlns="http://www.w3.org/2000/svg">
<path d="M7.90625 0C4.04063 0 0.90625 3.13438 0.90625 7C0.90625 10.8656 4.04063 14 7.90625 14C11.7719 14 14.9062 10.8656 14.9062 7C14.9062 3.13438 11.7719 0 7.90625 0ZM10.9297 4.71406L7.63906 9.27656C7.59307 9.34076 7.53244 9.39306 7.4622 9.42914C7.39196 9.46523 7.31412 9.48405 7.23516 9.48405C7.15619 9.48405 7.07836 9.46523 7.00811 9.42914C6.93787 9.39306 6.87724 9.34076 6.83125 9.27656L4.88281 6.57656C4.82344 6.49375 4.88281 6.37813 4.98438 6.37813H5.71719C5.87656 6.37813 6.02812 6.45469 6.12187 6.58594L7.23438 8.12969L9.69063 4.72344C9.78438 4.59375 9.93437 4.51562 10.0953 4.51562H10.8281C10.9297 4.51562 10.9891 4.63125 10.9297 4.71406Z" fill="#389E0D"/>
</svg>
