<svg width="15" height="16" viewBox="0 0 15 16" fill="none" xmlns="http://www.w3.org/2000/svg">
<mask id="path-1-inside-1_170_15299" fill="white">
<path fill-rule="evenodd" clip-rule="evenodd" d="M6.76193 15.2324H6.73483C3.51764 15.2233 0.911865 11.9889 0.911865 8.00024C0.911865 4.00602 3.52496 0.768066 6.74838 0.768066C7.07309 0.768066 7.39162 0.800924 7.7019 0.864103V15.1364C7.39593 15.1987 7.08196 15.2315 6.76193 15.2324Z"/>
</mask>
<path fill-rule="evenodd" clip-rule="evenodd" d="M6.76193 15.2324H6.73483C3.51764 15.2233 0.911865 11.9889 0.911865 8.00024C0.911865 4.00602 3.52496 0.768066 6.74838 0.768066C7.07309 0.768066 7.39162 0.800924 7.7019 0.864103V15.1364C7.39593 15.1987 7.08196 15.2315 6.76193 15.2324Z" fill="#389E0D"/>
<path d="M6.76193 15.2324V16.2324L6.76475 16.2324L6.76193 15.2324ZM6.73483 15.2324L6.73202 16.2324H6.73483V15.2324ZM7.7019 0.864103H8.7019V0.0472021L7.90142 -0.11579L7.7019 0.864103ZM7.7019 15.1364L7.90142 16.1163L8.7019 15.9533V15.1364H7.7019ZM6.76193 14.2324H6.73483V16.2324H6.76193V14.2324ZM6.73765 14.2324C4.26031 14.2254 1.91187 11.6476 1.91187 8.00024H-0.0881348C-0.0881348 12.3302 2.77498 16.2213 6.73202 16.2324L6.73765 14.2324ZM1.91187 8.00024C1.91187 4.34741 4.26682 1.76807 6.74838 1.76807V-0.231934C2.78311 -0.231934 -0.0881348 3.66463 -0.0881348 8.00024H1.91187ZM6.74838 1.76807C7.00535 1.76807 7.25704 1.79404 7.50237 1.844L7.90142 -0.11579C7.5262 -0.192192 7.14084 -0.231934 6.74838 -0.231934V1.76807ZM6.7019 0.864103V15.1364H8.7019V0.864103H6.7019ZM7.50237 14.1565C7.26044 14.2057 7.01235 14.2317 6.75911 14.2324L6.76475 16.2324C7.15157 16.2313 7.53142 16.1916 7.90142 16.1163L7.50237 14.1565Z" fill="#389E0D" mask="url(#path-1-inside-1_170_15299)"/>
<circle cx="7.5" cy="8" r="6.73218" stroke="#389E0D"/>
</svg>
