<svg width="13" height="14" viewBox="0 0 13 14" fill="none" xmlns="http://www.w3.org/2000/svg">
<path d="M0.21875 12.75C0.21875 13.0266 0.442187 13.25 0.71875 13.25H12.2188C12.4953 13.25 12.7188 13.0266 12.7188 12.75V6.1875H0.21875V12.75ZM12.2188 1.875H9.59375V0.875C9.59375 0.80625 9.5375 0.75 9.46875 0.75H8.59375C8.525 0.75 8.46875 0.80625 8.46875 0.875V1.875H4.46875V0.875C4.46875 0.80625 4.4125 0.75 4.34375 0.75H3.46875C3.4 0.75 3.34375 0.80625 3.34375 0.875V1.875H0.71875C0.442187 1.875 0.21875 2.09844 0.21875 2.375V5.125H12.7188V2.375C12.7188 2.09844 12.4953 1.875 12.2188 1.875Z" fill="#CF1322"/>
</svg>
