<svg width="13" height="14" viewBox="0 0 13 14" fill="none" xmlns="http://www.w3.org/2000/svg">
<path d="M12.2812 1.875H9.65625V0.875C9.65625 0.80625 9.6 0.75 9.53125 0.75H8.65625C8.5875 0.75 8.53125 0.80625 8.53125 0.875V1.875H4.53125V0.875C4.53125 0.80625 4.475 0.75 4.40625 0.75H3.53125C3.4625 0.75 3.40625 0.80625 3.40625 0.875V1.875H0.78125C0.504687 1.875 0.28125 2.09844 0.28125 2.375V12.75C0.28125 13.0266 0.504687 13.25 0.78125 13.25H12.2812C12.5578 13.25 12.7812 13.0266 12.7812 12.75V2.375C12.7812 2.09844 12.5578 1.875 12.2812 1.875ZM9.38281 5.76094L6.06094 10.3344C6.03758 10.3663 6.00702 10.3923 5.97172 10.4103C5.93643 10.4282 5.8974 10.4375 5.85781 10.4375C5.81823 10.4375 5.7792 10.4282 5.7439 10.4103C5.70861 10.3923 5.67804 10.3663 5.65469 10.3344L3.67969 7.61563C3.62031 7.53281 3.67969 7.41719 3.78125 7.41719H4.64375C4.72344 7.41719 4.8 7.45625 4.84688 7.52031L5.85781 8.91094L8.21562 5.66406C8.2625 5.6 8.3375 5.56094 8.41875 5.56094H9.28125C9.38281 5.5625 9.44219 5.67813 9.38281 5.76094Z" fill="#CF1322"/>
</svg>
