<svg width="620" height="217" viewBox="0 0 620 217" fill="none" xmlns="http://www.w3.org/2000/svg">
<path fill-rule="evenodd" clip-rule="evenodd" d="M545.37 126.275L503.665 48.7217L536.695 48.7478L561.847 95.5139L584.07 54.0373L586.873 48.7978L619.862 48.8241L578.359 126.315L561.892 157.049L537.226 203.095L504.237 203.068L506.967 197.967L529.83 155.289L545.362 126.289L545.37 126.275Z" fill="#171F2E"/>
<path d="M464.387 10.2259H492.655V164.25H464.387V10.2259Z" fill="#171F2E"/>
<path d="M450.657 47.5158V73.4566H421.582V163.439H395.739V73.4566H366.664V47.5158H395.739V8.60437H421.582V47.5158H450.657Z" fill="#171F2E"/>
<path d="M295.116 71.6089L277.841 96.2933L243.153 46.7056L277.696 46.7055L295.116 71.6089Z" fill="#171F2E"/>
<path d="M358.797 162.629H324.255L306.269 136.922L323.537 112.23L358.797 162.629Z" fill="#171F2E"/>
<path d="M358.765 46.705L328.762 89.5886L318.231 104.642L300.955 129.327L294.882 138.017L277.663 162.628H243.121L276.451 114.986L283.689 104.642L300.955 79.958L310.34 66.5579L324.223 46.705H358.765Z" fill="#2596be" stroke="white" stroke-width="0.0013089" stroke-miterlimit="2" stroke-linejoin="round"/>
<path fill-rule="evenodd" clip-rule="evenodd" d="M233.976 125.724C226.257 147.743 206.328 163.44 182.987 163.44C152.957 163.44 128.577 137.467 128.577 105.476C128.577 73.4902 152.957 47.5168 182.987 47.5168C213.014 47.5168 237.389 73.4902 237.389 105.476C237.389 109.675 236.97 113.774 236.171 117.723H211.282L211.288 117.718H154.683C159.225 129.615 170.192 138.014 182.987 138.014C192.661 138.014 201.289 133.208 206.887 125.724H233.976ZM211.288 93.2386H154.683C159.225 81.3417 170.192 72.9426 182.987 72.9426C195.78 72.9426 206.747 81.3417 211.288 93.2386Z" fill="#171F2E"/>
<path d="M115.491 105.477V163.439H87.224V105.072C87.224 88.9563 74.205 75.8887 58.1494 75.8887C42.0936 75.8887 29.0747 88.9563 29.0747 105.072V163.439H0V105.477C0 97.5817 1.57487 90.0507 4.4258 83.1845C13.132 62.2372 33.7266 47.5157 57.7456 47.5157C81.7645 47.5157 102.359 62.2372 111.065 83.1845C113.916 90.0507 115.491 97.5817 115.491 105.477Z" fill="#171F2E"/>
</svg>
