<svg width="216" height="217" viewBox="0 0 216 217" fill="none" xmlns="http://www.w3.org/2000/svg">
<g clip-path="url(#clip0_5_12884)">
<path d="M108 216.102C167.647 216.102 216 167.749 216 108.102C216 48.4552 167.647 0.101929 108 0.101929C48.3532 0.101929 0 48.4552 0 108.102C0 167.749 48.3532 216.102 108 216.102Z" fill="#EBEBEB"/>
<path d="M108 184.046C150.471 184.046 184.901 181.332 184.901 177.984C184.901 174.636 150.471 171.922 108 171.922C65.5287 171.922 31.0989 174.636 31.0989 177.984C31.0989 181.332 65.5287 184.046 108 184.046Z" fill="#D2D2D2"/>
<path d="M27.8348 28.4612H188.163C193.43 28.4612 197.74 32.7715 197.74 38.0386V136.802H18.2595V38.0377C18.2595 32.7706 22.5698 28.4603 27.8369 28.4603L27.8348 28.4612Z" fill="#666666"/>
<path d="M24.762 130.3H191.238V38.0399C191.238 36.3621 189.842 34.9648 188.165 34.9648H27.837C26.1592 34.9648 24.7641 36.36 24.7641 38.0399V130.3H24.762Z" fill="#DCE3DB"/>
<path d="M197.74 136.802V147.275C197.74 152.545 192.99 156.853 187.183 156.853H28.817C23.0103 156.853 18.26 152.545 18.26 147.275V136.802H197.74Z" fill="white"/>
<path d="M59.5844 48.8407H156.415H170.829C172.576 48.8407 174.004 50.2709 174.004 52.0166V70.9136V130.3H41.9951V70.914V52.017C41.9951 50.2692 43.4232 48.8411 45.171 48.8411L59.5844 48.8407Z" fill="white"/>
<path d="M146.063 78.7799H70.2444V89.3652H146.063V78.7799Z" fill="#ECF0F1"/>
<path d="M45.171 48.8407H170.829C172.576 48.8407 174.004 50.2687 174.004 52.0166V58.3671H41.9951V52.0166C41.9951 50.2692 43.4232 48.8407 45.171 48.8407Z" fill="#828282"/>
<path d="M95.5061 52.1301H164.533C165.003 52.1301 165.387 52.5157 165.387 52.9836V54.566C165.387 55.0339 165.003 55.4195 164.533 55.4195H95.5061C95.0383 55.4195 94.6548 55.0356 94.6548 54.566V52.9836C94.6544 52.5136 95.0383 52.1301 95.5061 52.1301Z" fill="white"/>
<path d="M49.5008 51.5631C50.5099 51.5631 51.3288 52.3815 51.3288 53.3911C51.3288 54.4006 50.5104 55.2191 49.5008 55.2191C48.4896 55.2191 47.6711 54.4006 47.6711 53.3911C47.6711 52.3794 48.49 51.5631 49.5008 51.5631Z" fill="#21D0C3"/>
<path d="M146.063 94.6703H70.2444V105.256H146.063V94.6703Z" fill="#ECF0F1"/>
<path d="M56.7159 51.5631C57.7272 51.5631 58.5439 52.3815 58.5439 53.3911C58.5439 54.4006 57.7255 55.2191 56.7159 55.2191C55.7064 55.2191 54.8879 54.4006 54.8879 53.3911C54.8884 52.3794 55.7068 51.5631 56.7159 51.5631Z" fill="#FAD24D"/>
<path d="M63.9356 51.5631C64.9447 51.5631 65.7635 52.3815 65.7635 53.3911C65.7635 54.4006 64.9451 55.2191 63.9356 55.2191C62.9243 55.2191 62.1055 54.4006 62.1055 53.3911C62.1059 52.3794 62.9243 51.5631 63.9356 51.5631Z" fill="#FF5B62"/>
<path d="M93.2846 110.339H122.715C124.006 110.339 125.052 111.385 125.052 112.675V116.697C125.052 117.987 124.006 119.034 122.715 119.034H93.2846C91.9945 119.034 90.9482 117.988 90.9482 116.697V112.675C90.9482 111.385 91.9941 110.339 93.2846 110.339Z" fill="#DEDEDE"/>
<path d="M77.2714 86.0286C78.3518 86.0286 79.2277 85.1527 79.2277 84.0723C79.2277 82.9919 78.3518 82.1161 77.2714 82.1161C76.191 82.1161 75.3152 82.9919 75.3152 84.0723C75.3152 85.1527 76.191 86.0286 77.2714 86.0286Z" fill="#828282"/>
<path d="M85.8649 86.0286C86.9453 86.0286 87.8212 85.1527 87.8212 84.0723C87.8212 82.9919 86.9453 82.1161 85.8649 82.1161C84.7845 82.1161 83.9087 82.9919 83.9087 84.0723C83.9087 85.1527 84.7845 86.0286 85.8649 86.0286Z" fill="#828282"/>
<path d="M94.4548 86.0286C95.5352 86.0286 96.411 85.1527 96.411 84.0723C96.411 82.9919 95.5352 82.1161 94.4548 82.1161C93.3744 82.1161 92.4985 82.9919 92.4985 84.0723C92.4985 85.1527 93.3744 86.0286 94.4548 86.0286Z" fill="#828282"/>
<path d="M103.049 86.0286C104.129 86.0286 105.005 85.1527 105.005 84.0723C105.005 82.9919 104.129 82.1161 103.049 82.1161C101.968 82.1161 101.092 82.9919 101.092 84.0723C101.092 85.1527 101.968 86.0286 103.049 86.0286Z" fill="#828282"/>
<path d="M77.2714 101.919C78.3518 101.919 79.2277 101.043 79.2277 99.9631C79.2277 98.8827 78.3518 98.0068 77.2714 98.0068C76.191 98.0068 75.3152 98.8827 75.3152 99.9631C75.3152 101.043 76.191 101.919 77.2714 101.919Z" fill="#828282"/>
<path d="M85.8649 101.919C86.9453 101.919 87.8212 101.043 87.8212 99.9631C87.8212 98.8827 86.9453 98.0068 85.8649 98.0068C84.7845 98.0068 83.9087 98.8827 83.9087 99.9631C83.9087 101.043 84.7845 101.919 85.8649 101.919Z" fill="#828282"/>
<path d="M94.4548 101.919C95.5352 101.919 96.411 101.043 96.411 99.9631C96.411 98.8827 95.5352 98.0068 94.4548 98.0068C93.3744 98.0068 92.4985 98.8827 92.4985 99.9631C92.4985 101.043 93.3744 101.919 94.4548 101.919Z" fill="#828282"/>
<path d="M103.049 101.919C104.129 101.919 105.005 101.043 105.005 99.9631C105.005 98.8827 104.129 98.0068 103.049 98.0068C101.968 98.0068 101.092 98.8827 101.092 99.9631C101.092 101.043 101.968 101.919 103.049 101.919Z" fill="#828282"/>
<path d="M111.642 101.919C112.722 101.919 113.598 101.043 113.598 99.9631C113.598 98.8827 112.722 98.0068 111.642 98.0068C110.562 98.0068 109.686 98.8827 109.686 99.9631C109.686 101.043 110.562 101.919 111.642 101.919Z" fill="#828282"/>
<path d="M120.231 101.919C121.312 101.919 122.188 101.043 122.188 99.9631C122.188 98.8827 121.312 98.0068 120.231 98.0068C119.151 98.0068 118.275 98.8827 118.275 99.9631C118.275 101.043 119.151 101.919 120.231 101.919Z" fill="#828282"/>
<path d="M108 149.706C109.821 149.706 111.297 148.23 111.297 146.41C111.297 144.589 109.821 143.113 108 143.113C106.179 143.113 104.703 144.589 104.703 146.41C104.703 148.23 106.179 149.706 108 149.706Z" fill="#B6B6B8"/>
<path d="M128.699 171.919L143.927 176.798H72.0728L84.3582 171.919V156.853H128.699V171.919Z" fill="#C2C2C4"/>
<path d="M128.699 171.919L84.3582 156.853H128.699V171.919Z" fill="#B6B6B8"/>
<path d="M84.3581 171.919H128.699L143.927 176.798V178.9H108H72.0706V176.798L84.356 171.919H84.3581Z" fill="#ECF0F1"/>
</g>
<defs>
<clipPath id="clip0_5_12884">
<rect width="216" height="216" fill="white" transform="translate(0 0.101929)"/>
</clipPath>
</defs>
</svg>
