<svg width="15" height="16" viewBox="0 0 15 16" fill="none" xmlns="http://www.w3.org/2000/svg">
<mask id="path-1-inside-1_170_15310" fill="white">
<path fill-rule="evenodd" clip-rule="evenodd" d="M8.23807 0.7676H8.26517C11.4824 0.776659 14.0881 4.01113 14.0881 7.99976C14.0881 11.994 11.475 15.2319 8.25162 15.2319C7.9269 15.2319 7.60838 15.1991 7.2981 15.1359L7.2981 0.863618C7.60407 0.801318 7.91804 0.768501 8.23807 0.7676Z"/>
</mask>
<path fill-rule="evenodd" clip-rule="evenodd" d="M8.23807 0.7676H8.26517C11.4824 0.776659 14.0881 4.01113 14.0881 7.99976C14.0881 11.994 11.475 15.2319 8.25162 15.2319C7.9269 15.2319 7.60838 15.1991 7.2981 15.1359L7.2981 0.863618C7.60407 0.801318 7.91804 0.768501 8.23807 0.7676Z" fill="#389E0D"/>
<path d="M8.23807 0.7676V-0.232404L8.23525 -0.232395L8.23807 0.7676ZM8.26517 0.7676L8.26798 -0.2324H8.26517V0.7676ZM7.2981 15.1359H6.2981V15.9528L7.09858 16.1158L7.2981 15.1359ZM7.2981 0.863618L7.09858 -0.116275L6.2981 0.0467168V0.863618H7.2981ZM8.23807 1.7676H8.26517V-0.2324H8.23807V1.7676ZM8.26235 1.7676C10.7397 1.77457 13.0881 4.35244 13.0881 7.99976H15.0881C15.0881 3.66983 12.225 -0.221253 8.26798 -0.232395L8.26235 1.7676ZM13.0881 7.99976C13.0881 11.6526 10.7332 14.2319 8.25162 14.2319V16.2319C12.2169 16.2319 15.0881 12.3354 15.0881 7.99976H13.0881ZM8.25162 14.2319C7.99465 14.2319 7.74296 14.206 7.49763 14.156L7.09858 16.1158C7.4738 16.1922 7.85916 16.2319 8.25162 16.2319V14.2319ZM8.2981 15.1359L8.2981 0.863618H6.2981L6.2981 15.1359H8.2981ZM7.49763 1.84351C7.73956 1.79425 7.98765 1.76831 8.24089 1.7676L8.23525 -0.232395C7.84843 -0.231306 7.46858 -0.191612 7.09858 -0.116275L7.49763 1.84351Z" fill="#389E0D" mask="url(#path-1-inside-1_170_15310)"/>
<circle cx="7.5" cy="8" r="6.73218" transform="rotate(-180 7.5 8)" stroke="#389E0D"/>
</svg>
