<svg width="15" height="14" viewBox="0 0 15 14" fill="none" xmlns="http://www.w3.org/2000/svg">
<path d="M7.71875 0C3.85313 0 0.71875 3.13438 0.71875 7C0.71875 10.8656 3.85313 14 7.71875 14C11.5844 14 14.7188 10.8656 14.7188 7C14.7188 3.13438 11.5844 0 7.71875 0ZM10.3031 9.65938L9.27188 9.65469L7.71875 7.80313L6.16719 9.65312L5.13438 9.65781C5.06563 9.65781 5.00938 9.60312 5.00938 9.53281C5.00938 9.50312 5.02031 9.475 5.03906 9.45156L7.07188 7.02969L5.03906 4.60938C5.02018 4.58647 5.00971 4.5578 5.00938 4.52812C5.00938 4.45937 5.06563 4.40312 5.13438 4.40312L6.16719 4.40781L7.71875 6.25938L9.27031 4.40938L10.3016 4.40469C10.3703 4.40469 10.4266 4.45937 10.4266 4.52969C10.4266 4.55937 10.4156 4.5875 10.3969 4.61094L8.36719 7.03125L10.3984 9.45312C10.4172 9.47656 10.4281 9.50469 10.4281 9.53438C10.4281 9.60313 10.3719 9.65938 10.3031 9.65938Z" fill="#BFBFBF"/>
</svg>
